<?xml version="1.0" ?><!DOCTYPE svg  PUBLIC '-//W3C//DTD SVG 1.1//EN'  'http://www.w3.org/Graphics/SVG/1.1/DTD/svg11.dtd'><svg enable-background="new 0 0 128 128" id="Слой_1" version="1.1" viewBox="0 0 128 128" xml:space="preserve" xmlns="http://www.w3.org/2000/svg" xmlns:xlink="http://www.w3.org/1999/xlink"><g><g><path d="M109,12.6H19c-8.3,0-15,6.7-15,15v71.9c0,8.8,7.2,16,16,16h88c8.8,0,16-7.2,16-16V27.6    C124,19.3,117.3,12.6,109,12.6z" fill="#F0F1EE"/></g><g><path d="M20,106.4c-3.9,0-7-3.1-7-7V27.6c0-3.3,2.7-6,6-6h90c3.3,0,6,2.7,6,6v71.9c0,3.9-3.1,7-7,7H20z" fill="#61BDA7"/></g><path d="M115,32.1v-1h-9.5v-9.5h-1v9.5h-9v-9.5h-1v9.5h-9v-9.5h-1v9.5h-9v-9.5h-1v9.5h-9v-9.5h-1v9.5   h-9v-9.5h-1v9.5h-9v-9.5h-1v9.5h-9v-9.5h-1v9.5h-9v-9.5h-1v9.5H13.1v1h11.4v9H13.1v1h11.4v9H13.1v1h11.4v9H13.1v1h11.4v9H13.1v1   h11.4v9H13.1v1h11.4v11.4h1V82.1h9v11.4h1V82.1h9v11.4h1V82.1h9v11.4h1V82.1h9v11.4h1V82.1h9v11.4h1V82.1h9v11.4h1V82.1h9v11.4h1   V82.1h9v11.4h1V82.1h9.5v-1h-9.5v-9h9.5v-1h-9.5v-9h9.5v-1h-9.5v-9h9.5v-1h-9.5v-9h9.5v-1h-9.5v-9H115z M94.5,32.1v9h-9v-9H94.5z    M55.5,52.1h9v9h-9V52.1z M54.5,61.1h-9v-9h9V61.1z M65.5,52.1h9v9h-9V52.1z M75.5,52.1h9v9h-9V52.1z M75.5,51.1v-9h9v9H75.5z    M74.5,51.1h-9v-9h9V51.1z M64.5,51.1h-9v-9h9V51.1z M54.5,51.1h-9v-9h9V51.1z M44.5,51.1h-9v-9h9V51.1z M44.5,52.1v9h-9v-9H44.5z    M44.5,62.1v9h-9v-9H44.5z M45.5,62.1h9v9h-9V62.1z M55.5,62.1h9v9h-9V62.1z M65.5,62.1h9v9h-9V62.1z M75.5,62.1h9v9h-9V62.1z    M85.5,62.1h9v9h-9V62.1z M85.5,61.1v-9h9v9H85.5z M85.5,51.1v-9h9v9H85.5z M84.5,32.1v9h-9v-9H84.5z M74.5,32.1v9h-9v-9H74.5z    M64.5,32.1v9h-9v-9H64.5z M54.5,32.1v9h-9v-9H54.5z M44.5,32.1v9h-9v-9H44.5z M25.5,32.1h9v9h-9V32.1z M25.5,42.1h9v9h-9V42.1z    M25.5,52.1h9v9h-9V52.1z M25.5,62.1h9v9h-9V62.1z M25.5,81.1v-9h9v9H25.5z M35.5,81.1v-9h9v9H35.5z M45.5,81.1v-9h9v9H45.5z    M55.5,81.1v-9h9v9H55.5z M65.5,81.1v-9h9v9H65.5z M75.5,81.1v-9h9v9H75.5z M85.5,81.1v-9h9v9H85.5z M104.5,81.1h-9v-9h9V81.1z    M104.5,71.1h-9v-9h9V71.1z M104.5,61.1h-9v-9h9V61.1z M104.5,51.1h-9v-9h9V51.1z M104.5,41.1h-9v-9h9V41.1z" fill="#502D4B" opacity="0.2"/><g><path d="M68.2,85.6C68.1,85.6,68.1,85.6,68.2,85.6c-0.7,0-1.2-0.5-1.2-1.1l-5-38.6l-6.1,21.3    c-0.2,0.5-0.7,0.9-1.2,0.9c-0.6,0-1.1-0.4-1.2-0.9l-5-19.1l-4.3,8.7c-0.2,0.4-0.6,0.7-1.1,0.7H13c-0.7,0-1.2-0.6-1.2-1.2    s0.6-1.2,1.2-1.2h29.2L47.7,44c0.2-0.5,0.7-0.7,1.2-0.7c0.5,0.1,0.9,0.4,1.1,0.9l4.6,17.9l6.5-22.7c0.2-0.6,0.7-0.9,1.3-0.9    c0.6,0,1.1,0.5,1.1,1.1l5,38.3l8.1-30.7c0.1-0.6,0.7-1,1.2-0.9c0.6,0,1.1,0.4,1.2,1l3.2,15.3l4.2-7c0.2-0.4,0.6-0.6,1.1-0.6H114    c0.7,0,1.2,0.6,1.2,1.2s-0.6,1.2-1.2,1.2H88.3l-5.5,9.1c-0.3,0.4-0.8,0.7-1.3,0.6c-0.5-0.1-0.9-0.5-1-1l-2.8-13.3l-8.4,31.8    C69.2,85.2,68.7,85.6,68.2,85.6z" fill="#FFFFFF"/></g><g opacity="0.3"><path d="M20,106.4c-3.9,0-7-3.1-7-7V27.6c0-3.3,2.7-6,6-6h90c3.3,0,6,2.7,6,6C69.2,38.5,37.8,65.1,20,106.4z" fill="#FFFFFF"/></g><g><path d="M108,107.7H20c-4.5,0-8.2-3.7-8.2-8.2V27.6c0-4,3.3-7.2,7.2-7.2h90c4,0,7.2,3.3,7.2,7.2v71.9    C116.2,104,112.5,107.7,108,107.7z M19,22.8c-2.6,0-4.8,2.1-4.8,4.8v71.9c0,3.2,2.6,5.8,5.8,5.8h88c3.2,0,5.8-2.6,5.8-5.8V27.6    c0-2.6-2.1-4.8-4.8-4.8H19z" fill="#502D4B"/></g><g><path d="M4,100.4V90.1h120v10.3c0,8.3-6.7,15-15,15H19C10.7,115.4,4,108.7,4,100.4z" fill="#B573A4"/></g><g><path d="M124,91.4H4c-0.7,0-1.2-0.6-1.2-1.2s0.6-1.2,1.2-1.2h120c0.7,0,1.2,0.6,1.2,1.2S124.7,91.4,124,91.4z" fill="#502D4B"/></g><path d="M104,113.9c-5.8,0-10.5-4.7-10.5-10.5s4.7-10.5,10.5-10.5s10.5,4.7,10.5,10.5   S109.8,113.9,104,113.9z" fill="#502D4B" opacity="0.2"/><g><circle cx="104" cy="103.4" fill="#898288" r="7.5"/></g><g opacity="0.6"><path d="M109.3,98.1c-2.9-2.9-7.7-2.9-10.6,0s-2.9,7.7,0,10.6L109.3,98.1z" fill="#FFFFFF"/></g><path d="M22.9,113.9c-5.8,0-10.5-4.7-10.5-10.5s4.7-10.5,10.5-10.5s10.5,4.7,10.5,10.5   S28.6,113.9,22.9,113.9z" fill="#502D4B" opacity="0.2"/><g><circle cx="22.9" cy="103.4" fill="#898288" r="7.5"/></g><g opacity="0.6"><path d="M28.2,98.1c-2.9-2.9-7.7-2.9-10.6,0s-2.9,7.7,0,10.6L28.2,98.1z" fill="#FFFFFF"/></g><g><path d="M104,112.1c-4.8,0-8.8-3.9-8.8-8.8s3.9-8.8,8.8-8.8s8.8,3.9,8.8,8.8S108.8,112.1,104,112.1z M104,97.1    c-3.4,0-6.2,2.8-6.2,6.2s2.8,6.2,6.2,6.2s6.2-2.8,6.2-6.2S107.4,97.1,104,97.1z" fill="#502D4B"/></g><g><path d="M22.9,112.1c-4.8,0-8.8-3.9-8.8-8.8s3.9-8.8,8.8-8.8s8.8,3.9,8.8,8.8S27.7,112.1,22.9,112.1z M22.9,97.1    c-3.4,0-6.2,2.8-6.2,6.2s2.8,6.2,6.2,6.2s6.2-2.8,6.2-6.2S26.3,97.1,22.9,97.1z" fill="#502D4B"/></g><g><path d="M109,116.7H19c-9,0-16.2-7.3-16.2-16.2V27.6c0-9,7.3-16.2,16.2-16.2h90c9,0,16.2,7.3,16.2,16.2v72.9    C125.2,109.4,118,116.7,109,116.7z M19,13.8c-7.6,0-13.8,6.2-13.8,13.8v72.9c0,7.6,6.2,13.8,13.8,13.8h90    c7.6,0,13.8-6.2,13.8-13.8V27.6c0-7.6-6.2-13.8-13.8-13.8H19z" fill="#502D4B"/></g></g></svg>