<?xml version="1.0" encoding="utf-8"?>
<!-- Svg Vector Icons : http://www.onlinewebfonts.com/icon -->
<!DOCTYPE svg PUBLIC "-//W3C//DTD SVG 1.1//EN" "http://www.w3.org/Graphics/SVG/1.1/DTD/svg11.dtd">
<svg version="1.1" xmlns="http://www.w3.org/2000/svg" xmlns:xlink="http://www.w3.org/1999/xlink" x="0px" y="0px" viewBox="0 0 1000 1000" enable-background="new 0 0 1000 1000" xml:space="preserve">
<metadata> Svg Vector Icons : http://www.onlinewebfonts.com/icon </metadata>
<g><g transform="translate(0.000000,512.000000) scale(0.100000,-0.100000)"><path d="M281.9,4993.6c-70.8-30.6-134-99.6-160.8-170.4c-15.3-36.4-21.1-668.2-21.1-2000.8c0-1859.1,1.9-1951.1,36.4-2014.2c42.1-80.4,134-147.4,225.9-164.7c137.9-26.8,191.5,13.4,771.6,595.5l545.7,545.7l957.3-955.4C3674.7-208.6,3632.6-172.2,3810.6-139.7c61.3,9.6,158.9,99.6,754.4,695c595.5,595.5,685.4,693.1,695,756.3c32.5,176.2,68.9,134-968.8,1171.8l-955.4,957.3l545.7,545.7c582.1,580.1,622.3,633.8,595.5,771.6c-17.2,91.9-84.2,183.8-164.7,225.9c-63.2,34.5-155.1,36.4-2020,36.4C707,5018.4,327.8,5014.6,281.9,4993.6z"/><path d="M6140.8,360c-30.6-15.3-356.1-327.4-721.8-693.1c-576.3-580.2-664.4-677.8-675.9-739.1c-32.5-178.1-68.9-135.9,968.8-1173.7l955.4-957.3l-545.7-545.7c-582.1-580.2-622.3-633.8-595.5-771.6c17.2-91.9,84.2-183.8,164.7-227.9c65.1-32.6,147.4-34.5,2042.9-30.6c1960.6,5.7,1975.9,5.7,2027.6,45.9c28.7,21.1,70.8,63.2,91.9,91.9c40.2,51.7,40.2,67,45.9,1998.9c1.9,1070.3,0,1974-5.7,2008.5c-15.3,84.2-116.8,187.6-216.4,216.4c-164.7,49.8-183.8,36.4-798.4-576.3L8323.5-1547l-938.2,940.1C6853-74.6,6420.3,344.7,6385.9,360C6309.3,392.6,6215.5,392.6,6140.8,360z"/></g></g>
</svg>